# xmcd
#
# Track frame offsets: 
#        150
#        7528
#        24338
#        45803
#        62630
#        80099
#        107955
#        129645
#        145081
#        163144
#        177049
#
# Disc length: 2465 seconds
#
# Revision: 0
# Processed by: cddbd v1.5.2PL0 Copyright (c) Steve Scherf et al.
# Submitted via: ExactAudioCopyFreeDBPlugin 1.0
#
DISCID=7f099f0b
DTITLE=Peer Gynt Band - Witchcraft
DYEAR=1900
DGENRE=Blues
TTITLE0=Lovechain
TTITLE1=Hotblood
TTITLE2=Liar
TTITLE3=X-Ray eyes
TTITLE4=Crazy
TTITLE5=Trusted one
TTITLE6=Witchcraft
TTITLE7=I'm not gonna beg
TTITLE8=Winterland
TTITLE9=Move slow
TTITLE10=Eagle eyes
EXTD=
EXTT0=
EXTT1=
EXTT2=
EXTT3=
EXTT4=
EXTT5=
EXTT6=
EXTT7=
EXTT8=
EXTT9=
EXTT10=
PLAYORDER=
